<svg viewBox="0 0 800 800" xmlns="http://www.w3.org/2000/svg">
    <path d="M400.007 722.447a15.046 15.046 0 0 1-10.644-4.41l-278.55-278.55c-40.047-40.044-62.099-93.285-62.099-149.916S70.767 179.7 110.813 139.653c40.047-40.047 93.281-62.099 149.919-62.099 51.75 0 100.668 18.414 139.274 52.146 38.6-33.733 87.512-52.146 139.261-52.146 56.63 0 109.879 22.052 149.918 62.099 40.048 40.047 62.1 93.289 62.1 149.919s-22.052 109.872-62.1 149.916l-278.541 278.55a15.061 15.061 0 0 1-10.637 4.409zM260.732 107.662c-48.596 0-94.273 18.921-128.631 53.278-34.357 34.358-53.278 80.042-53.278 128.631 0 48.588 18.921 94.266 53.278 128.627l267.906 267.905 267.891-267.905c34.358-34.361 53.278-80.039 53.278-128.627 0-48.589-18.92-94.273-53.278-128.631-34.356-34.357-80.042-53.278-128.63-53.278s-94.267 18.921-128.616 53.278c-5.653 5.646-15.643 5.646-21.288 0-34.358-34.357-80.043-53.278-128.632-53.278z"
          fill="currentColor"/>
    <path d="M139.041 304.626c-8.314 0-15.055-6.741-15.055-15.054 0-36.526 14.224-70.861 40.054-96.692 25.823-25.831 60.167-40.055 96.692-40.055 8.313 0 15.054 6.741 15.054 15.055s-6.741 15.055-15.054 15.055c-28.484 0-55.263 11.092-75.397 31.233-20.148 20.141-31.24 46.92-31.24 75.404 0 8.313-6.741 15.054-15.054 15.054z"
          fill="currentColor"/>
</svg>